<svg width="366" height="442" viewBox="0 0 366 442" fill="none" xmlns="http://www.w3.org/2000/svg">
<path d="M111.217 313.971C106.496 315.914 101.691 317.89 96.8917 319.87C92.7092 321.597 88.5222 323.305 84.3628 325.069C83.3126 325.516 82.2624 326.041 81.3503 326.718C79.1163 328.385 77.7897 330.333 77.9694 333.487C78.7708 347.344 79.3328 361.214 79.9224 375.084C80.4107 386.648 76.7718 396.498 68.2733 404.662C56.44 416.032 44.906 427.715 33.2523 439.269C29.9819 442.511 25.6935 442.824 22.8146 439.988C19.8252 437.045 20.0924 432.795 23.4871 429.428C35.256 417.773 47.0157 406.108 58.8121 394.476C63.902 389.457 66.417 383.429 66.0992 376.277C65.4221 361.03 64.7357 345.787 63.9757 330.544C63.7822 326.667 65.2931 323.513 67.6653 320.685C70.8159 316.927 74.6437 314.049 79.213 312.17C89.0657 308.123 98.9 304.024 108.757 299.99C110.075 299.451 110.761 298.908 110.779 297.227C110.908 285.346 111.222 273.47 111.387 261.589C111.397 260.88 110.835 259.83 110.231 259.489C104.206 256.132 98.1123 252.894 92.0459 249.611C89.6093 248.294 87.2371 248.524 84.7681 249.616C61.6956 259.784 38.6093 269.919 15.5276 280.059C13.7036 280.861 11.8933 281.699 10.0554 282.459C6.24612 284.024 2.10974 282.459 0.575876 278.913C-0.944172 275.395 0.64497 271.503 4.45891 269.818C21.4927 262.289 38.5494 254.81 55.5924 247.313C63.5197 243.827 71.447 240.346 79.3697 236.851C86.1454 233.862 92.7599 234.157 99.2546 237.73C103.736 240.198 108.255 242.602 112.963 245.144C113.686 240.406 114.248 235.93 115.077 231.504C116.205 225.481 117.597 219.503 118.734 213.48C118.896 212.623 118.555 211.329 117.956 210.731C104.188 196.953 90.3555 183.234 76.5184 169.52C73.4184 166.449 69.7473 165.242 65.3806 166.136C48.8627 169.516 32.3357 172.859 15.804 176.184C10.3364 177.284 6.08029 173.306 7.1259 168.102C7.73853 165.063 9.74223 163.276 12.6994 162.673C28.0197 159.537 43.3353 156.368 58.6878 153.403C62.7136 152.624 66.9007 152.017 70.9633 152.233C77.0665 152.56 82.1794 155.544 86.5185 159.868C98.0893 171.399 109.702 182.889 121.282 194.411C121.926 195.055 122.475 195.801 123.396 196.888C123.985 195.226 124.34 194.102 124.778 193.015C126.947 187.614 129.154 182.226 131.3 176.815C131.622 175.995 132.037 174.987 131.825 174.222C130.618 169.778 131.429 165.551 132.889 161.365C137.611 147.84 146.114 137.479 158.721 130.562C159.25 130.272 159.771 129.963 159.886 129.899C159.559 125.971 158.923 122.328 159.034 118.708C159.186 113.749 161.291 109.397 164.373 105.501C164.981 104.732 165.547 103.613 165.492 102.692C163.189 64.6638 146.556 35.2423 113.156 15.961C111.503 15.0078 109.729 14.248 107.993 13.4421C104.266 11.7106 102.613 7.83315 104.133 4.30569C105.662 0.75061 109.789 -1.16969 113.331 0.75982C120.176 4.48989 127.196 8.12326 133.373 12.8158C159.78 32.8615 174.557 59.6858 178.532 92.5381C178.698 93.8966 178.887 95.2504 179.089 96.7655C180.425 96.7655 181.697 96.7655 182.972 96.7655C184.262 96.7655 185.552 96.7655 186.722 96.7655C187.814 90.5809 188.56 84.4931 189.988 78.5618C197.961 45.3687 217.022 20.4786 246.686 3.66099C248.68 2.52815 250.753 1.49202 252.885 0.653904C256.644 -0.819705 260.394 0.769031 261.886 4.28727C263.415 7.88841 261.84 11.6599 258.123 13.4421C224.829 29.4261 206.727 56.3287 201.457 92.4045C200.969 95.734 200.766 99.1141 200.564 102.476C200.513 103.305 200.748 104.359 201.254 104.976C207.086 112.059 208.647 119.938 205.902 128.683C205.815 128.964 205.801 129.263 205.865 128.876C210.799 132.758 215.709 136.074 219.965 140.08C227.344 147.025 232.01 155.733 234.313 165.578C234.903 168.102 234.387 170.883 234.368 173.545C234.364 174.291 234.078 175.134 234.332 175.765C237.077 182.58 239.905 189.359 242.968 196.768C245.981 193.595 248.846 190.441 251.858 187.425C261.126 178.146 270.412 168.885 279.758 159.684C286.423 153.126 294.433 150.723 303.614 152.56C320.145 155.871 336.668 159.251 353.186 162.622C357.456 163.492 359.828 167.038 358.939 171.086C358.096 174.927 354.512 177.045 350.247 176.179C333.72 172.836 317.193 169.493 300.675 166.122C296.414 165.251 292.761 166.352 289.712 169.373C275.87 183.078 262.043 196.805 248.256 210.57C247.662 211.164 247.128 212.296 247.257 213.056C249.062 223.395 250.988 233.71 252.895 244.034C252.945 244.315 253.074 244.582 253.24 245.07C257.45 242.796 261.619 240.705 265.631 238.347C272.964 234.032 280.246 233.917 288.022 237.385C312.163 248.16 336.41 258.711 360.634 269.307C363.771 270.679 366 272.595 366 276.27C365.995 281.307 361.053 284.54 356.235 282.509C349.105 279.502 342.043 276.329 334.954 273.216C316.99 265.323 299.026 257.44 281.075 249.519C278.487 248.377 276.092 248.451 273.604 249.827C267.837 253.014 262.02 256.123 256.202 259.217C255.092 259.807 254.562 260.378 254.608 261.837C254.949 273.405 255.221 284.982 255.318 296.555C255.336 298.59 255.916 299.461 257.754 300.197C267.501 304.102 277.206 308.113 286.893 312.166C292.393 314.468 297.156 317.89 300.09 323.144C301.324 325.359 302.048 328.219 301.965 330.752C301.458 346.082 300.601 361.398 299.97 376.719C299.689 383.507 302.121 389.323 306.958 394.112C318.837 405.874 330.717 417.635 342.596 429.396C345.226 432.002 345.977 434.862 344.793 437.708C343.706 440.324 341.122 442.18 338.252 441.82C336.608 441.613 334.692 440.964 333.545 439.845C320.868 427.471 308.155 415.13 295.797 402.438C288.869 395.323 285.755 386.376 286.133 376.406C286.672 362.227 287.234 348.048 288.104 333.892C288.362 329.674 286.391 327.164 283.139 325.732C273.885 321.657 264.475 317.936 255.119 314.086C254.995 314.035 254.825 314.104 254.599 314.128C253.913 320.031 253.346 325.962 252.517 331.862C248.92 357.442 242.756 382.273 230.366 405.183C224.599 415.853 217.625 425.652 207.763 432.988C190.927 445.514 172.429 444.924 156.312 431.441C145.676 422.548 138.394 411.16 132.447 398.837C123.958 381.241 118.702 362.614 115.418 343.425C113.764 333.782 112.631 324.033 111.217 313.971ZM142.111 186.476C141.853 187.084 141.365 188.198 140.909 189.322C134.446 205.246 130.333 221.81 127.873 238.771C122.382 276.601 123.004 314.298 131.097 351.741C135.003 369.807 140.78 387.223 150.466 403.124C155.331 411.109 161.019 418.413 169.034 423.529C171.162 424.888 173.534 425.869 176.141 427.204C176.141 425.482 176.141 424.413 176.141 423.345C176.141 377.17 176.141 331 176.141 284.826C176.141 284.135 176.105 283.444 176.146 282.753C176.316 279.857 178.145 277.513 180.904 276.61C185.681 275.049 189.946 278.475 189.946 283.909C189.951 330.314 189.946 376.714 189.946 423.119C189.946 424.307 189.946 425.496 189.946 426.942C194.437 425.482 198.035 423.221 201.314 420.43C209.956 413.076 215.911 403.723 220.812 393.666C232.148 370.401 237.376 345.511 240.057 319.985C241.96 301.869 242.185 283.702 241.052 265.531C239.67 243.256 236.174 221.355 229.117 200.121C227.505 195.276 225.598 190.529 224.087 186.435C196.524 186.61 169.573 186.564 142.111 186.476ZM182.816 172.702C182.816 172.707 182.816 172.712 182.816 172.716C194.235 172.716 205.653 172.73 217.068 172.707C220.163 172.702 221.536 171.081 220.757 168.19C216.165 151.156 201.333 138.432 183.599 138.234C165.81 138.036 149.628 150.718 145.344 167.987C144.584 171.049 145.851 172.693 149.02 172.698C160.287 172.707 171.549 172.702 182.816 172.702ZM193.359 120.859C193.198 116.622 191.259 113.459 187.519 111.649C183.682 109.793 179.877 110.244 176.542 112.948C173.276 115.595 172.231 119.132 172.963 123.231C173.217 124.635 173.806 125.091 175.451 125.013C180.398 124.778 185.368 124.704 190.306 124.99C192.263 125.105 192.968 124.626 193.157 122.885C193.23 122.204 193.295 121.518 193.359 120.859Z" fill="#99D69D"/>
</svg>
