<svg width="188" height="211" viewBox="0 0 188 211" fill="none" xmlns="http://www.w3.org/2000/svg">
<path d="M185.05 155.07C178.07 147.05 174.53 136.85 173.34 126.44C172.87 122.22 166.1 120.04 160.69 118.37C160.12 132.48 156.37 145.7 150.33 156.9H150.28C149.92 157.63 149.55 158.31 149.19 158.98C149.61 158.3 149.97 157.57 150.34 156.9C158.31 160.65 164.08 165.75 158.31 172.05C155.71 174.86 153 177.57 149.98 180.02C143.21 185.59 138.37 188.4 148.26 193.87C153.99 197.05 156.9 202.51 158.62 208.6C158.93 209.64 157.42 210.84 156.69 209.8C151.28 201.83 140.76 200.85 135.81 193.14C134.04 190.33 135.6 188.56 137.11 186.37C139.04 183.61 153.87 168.93 149.97 166.33C148.72 165.5 147.47 164.66 146.17 163.83C147 162.58 147.78 161.33 148.56 160.03C148.35 160.34 148.14 160.65 147.88 161.02C147.26 161.96 146.53 162.79 145.95 163.73C146 163.78 146.11 163.83 146.16 163.83C133.82 182.21 114.71 194.03 93.32 194.03C72.03 194.03 53.08 182.37 40.69 164.15C40.79 164.1 40.95 163.99 41.05 163.94C40.16 162.9 39.33 161.81 38.5 160.71C39.18 161.86 39.91 163 40.69 164.15C39.54 164.88 38.4 165.61 37.31 166.34C33.41 168.94 48.24 183.62 50.17 186.38C51.68 188.57 53.24 190.34 51.47 193.15C46.52 200.86 36.06 201.84 30.59 209.81C29.86 210.85 28.35 209.65 28.66 208.61C30.38 202.52 33.29 197.05 39.02 193.88C48.91 188.41 44.07 185.6 37.3 180.03C34.33 177.58 31.57 174.88 28.97 172.06C23.5 166.07 29.07 160.81 36.47 157.12C30.33 145.87 26.58 132.65 25.9 118.49C20.69 120.16 14.34 122.45 13.93 126.46C12.73 136.87 9.19001 147.08 2.22001 155.09C1.28001 156.18 -0.490001 154.67 0.239999 153.53C4.46 146.4 6.9 139.32 7.84 131.14C8.36 126.82 7.32 122.03 9.71 118.18C11.64 115.16 18.77 114.59 21.79 113.6C22.78 113.29 24.5 112.82 25.8 112.45C26.06 95.53 30.8 79.86 38.61 67.1C36.32 66.06 33.98 64.97 31.63 63.77C28.25 62.05 24.18 58.72 23.25 54.82C21.69 48 25.96 42.17 27.78 35.92C31.27 23.69 31.63 14.05 28.51 1.72C27.99 -0.359999 30.7 -0.469999 31.53 1.1C37.83 13.44 36.37 24.84 34.55 38.17C33.25 48.01 27.57 55.61 39.6 62.27C40.17 62.58 40.64 62.84 41.16 63.21C43.92 59.25 47.04 55.56 50.37 52.28C49.75 48.69 50.11 45.56 51.2 42.75C53.18 44.83 56.46 45.25 59.89 44.47C62.39 44 64.99 42.86 67.18 41.4C68.27 40.67 69.37 39.73 70.36 38.75C73.07 35.94 75.1 32.29 75.25 28.44C75.3 26.93 74.94 25.68 74.37 24.64C74.42 24.64 74.53 24.59 74.58 24.59C77.39 19.44 82.91 15.22 89.52 14.59C94.31 14.17 99.67 14.8 103.47 17.66C105.92 19.48 107.43 21.67 108.62 23.96C108.62 24.01 108.57 24.01 108.57 24.06C108.26 24.79 107.95 25.62 107.79 26.56C107.11 30.78 109.2 34.37 112.06 37.13C112.74 37.86 113.52 38.48 114.3 39.06C116.38 40.62 119.97 41.98 123.72 42.55C128.09 43.28 132.57 42.81 134.81 40.16C136.63 44.06 137.52 48.49 136.48 52.5C139.81 55.78 142.88 59.48 145.64 63.43C146.32 63.07 146.99 62.65 147.67 62.28C159.7 55.62 154.02 48.02 152.72 38.18C150.9 24.85 149.44 13.45 155.79 1.11C156.57 -0.449999 159.28 -0.349999 158.76 1.73C155.64 14.07 156 23.7 159.49 35.93C161.31 42.18 165.58 48.01 164.02 54.83C163.13 58.73 159.02 62.07 155.64 63.78C153.14 65.08 150.69 66.23 148.2 67.37C155.91 80.07 160.54 95.54 160.8 112.25C160.7 112.25 160.64 112.2 160.54 112.2C160.64 113.19 160.75 114.23 160.8 115.27C160.85 114.85 160.85 114.44 160.85 114.02C160.85 113.45 160.85 112.82 160.8 112.25C162.31 112.67 163.92 113.08 165.49 113.6C168.51 114.59 175.69 115.16 177.57 118.18C179.96 122.03 178.92 126.82 179.44 131.14C180.43 139.31 182.82 146.39 187.04 153.53C187.75 154.65 186.04 156.16 185.05 155.07Z" fill="#231F20"/>
<path d="M108.67 24.03C108.62 24.03 108.62 24.03 108.57 24.03C108.57 23.98 108.62 23.98 108.62 23.93C108.62 23.98 108.67 23.98 108.67 24.03Z" fill="#231F20"/>
<path d="M63.73 41.04C67.23 39.26 70.6 36.35 72.22 32.67C73.25 30.34 73.32 26.91 71.83 25.28C68.41 26.34 65.52 27.84 63.03 29.74C58.56 32.79 54.68 36.2 52.35 40.31C54.39 43.56 59.59 43.14 63.73 41.04Z" fill="#231F20"/>
<path d="M118.24 38.51C121.57 40.16 131.58 42.69 133.73 38.02C133.34 37.34 132.92 36.69 132.48 36.06C127.54 29.04 118.89 25.96 110.72 24.32C109.58 26.05 109.57 28.56 110.53 30.87C111.96 34.3 114.94 36.89 118.24 38.51Z" fill="#231F20"/>
<path d="M148.55 160.01C147.77 161.31 146.99 162.56 146.16 163.81C146.11 163.81 146 163.76 145.95 163.71C146.52 162.77 147.25 161.94 147.88 161C148.13 160.64 148.34 160.32 148.55 160.01Z" fill="white"/>
<path d="M150.32 156.89C149.96 157.57 149.59 158.3 149.17 158.97C149.53 158.29 149.9 157.62 150.26 156.89H150.32Z" fill="white"/>
<path d="M160.84 113.99C160.84 114.41 160.84 114.82 160.79 115.24C160.74 114.2 160.63 113.16 160.53 112.17C160.63 112.17 160.69 112.22 160.79 112.22C160.84 112.79 160.84 113.42 160.84 113.99Z" fill="white"/>
<path d="M41.04 163.92C40.94 163.97 40.78 164.08 40.68 164.13C39.9 162.98 39.17 161.84 38.49 160.69C39.33 161.78 40.16 162.88 41.04 163.92Z" fill="white"/>
<path d="M41.04 163.92C40.94 163.97 40.78 164.08 40.68 164.13C39.9 162.98 39.17 161.84 38.49 160.69C39.33 161.78 40.16 162.88 41.04 163.92Z" fill="#603813"/>
<path d="M148.55 160.01C147.77 161.31 146.99 162.56 146.16 163.81C146.11 163.81 146 163.76 145.95 163.71C146.52 162.77 147.25 161.94 147.88 161C148.13 160.64 148.34 160.32 148.55 160.01Z" fill="#603813"/>
<path d="M150.32 156.89C149.96 157.57 149.59 158.3 149.17 158.97C149.53 158.29 149.9 157.62 150.26 156.89H150.32Z" fill="#603813"/>
<path d="M160.84 113.99C160.84 114.41 160.84 114.82 160.79 115.24C160.74 114.2 160.63 113.16 160.53 112.17C160.63 112.17 160.69 112.22 160.79 112.22C160.84 112.79 160.84 113.42 160.84 113.99Z" fill="#603813"/>
<path d="M90.3 58.02V198.69C90.3 201.2 87.63 202.82 85.43 201.63C72.06 194.41 35.5 170.67 30.56 124.94C24.51 68.83 62.67 54.7 62.67 54.7C62.67 54.7 71.65 50.48 84.89 51.92C87.96 52.26 90.3 54.92 90.3 58.02Z" stroke="white" stroke-miterlimit="10"/>
<path d="M90.3 138.1V198.69C90.3 201.2 87.63 202.82 85.43 201.63C72.06 194.41 35.5 170.67 30.56 124.94C24.51 68.83 62.67 134.79 62.67 134.79C62.67 134.79 71.65 130.57 84.89 132.01C87.96 132.35 90.3 135 90.3 138.1Z" fill="white" fill-opacity="0.5"/>
<path d="M90.3 156.89V198.69C90.3 201.2 87.63 202.82 85.43 201.63C72.06 194.41 35.5 170.67 30.56 124.94C24.51 68.83 62.67 153.57 62.67 153.57C62.67 153.57 71.65 149.35 84.89 150.79C87.96 151.13 90.3 153.79 90.3 156.89Z" fill="white" fill-opacity="0.7"/>
<path d="M95.21 58.02V198.69C95.21 201.2 97.88 202.82 100.08 201.63C113.45 194.41 150.01 170.67 154.95 124.94C161 68.83 122.84 54.7 122.84 54.7C122.84 54.7 113.86 50.48 100.62 51.92C97.55 52.26 95.21 54.92 95.21 58.02Z" stroke="white" stroke-miterlimit="10"/>
<path d="M95.21 138.1V198.69C95.21 201.2 97.88 202.82 100.08 201.63C113.45 194.41 150.01 170.67 154.95 124.94C161 68.83 122.84 134.79 122.84 134.79C122.84 134.79 113.86 130.57 100.62 132.01C97.55 132.35 95.21 135 95.21 138.1Z" fill="white" fill-opacity="0.5"/>
<path d="M95.21 156.89V198.69C95.21 201.2 97.88 202.82 100.08 201.63C113.45 194.41 150.01 170.67 154.95 124.94C161 68.83 122.84 153.57 122.84 153.57C122.84 153.57 113.86 149.35 100.62 150.79C97.55 151.13 95.21 153.79 95.21 156.89Z" fill="white" fill-opacity="0.7"/>
</svg>
