<svg width="188" height="211" viewBox="0 0 188 211" fill="none" xmlns="http://www.w3.org/2000/svg">
<path d="M185.792 155.042C178.812 147.022 175.272 136.822 174.082 126.412C173.612 122.192 166.842 120.012 161.432 118.342C160.862 132.452 157.112 145.672 151.072 156.872H151.022C150.662 157.602 150.292 158.282 149.932 158.952C150.352 158.272 150.712 157.542 151.082 156.872C159.052 160.622 164.822 165.722 159.052 172.022C156.452 174.832 153.742 177.542 150.722 179.992C143.952 185.562 139.112 188.372 149.002 193.842C154.732 197.022 157.642 202.482 159.362 208.572C159.672 209.612 158.162 210.812 157.432 209.772C152.022 201.802 141.502 200.822 136.552 193.112C134.782 190.302 136.342 188.532 137.852 186.342C139.782 183.582 154.612 168.902 150.712 166.302C149.462 165.472 148.212 164.632 146.912 163.802C147.742 162.552 148.522 161.302 149.302 160.002C149.092 160.312 148.882 160.622 148.622 160.992C148.002 161.932 147.272 162.762 146.692 163.702C146.742 163.752 146.852 163.802 146.902 163.802C134.562 182.182 115.452 194.002 94.0622 194.002C72.7722 194.002 53.8222 182.342 41.4322 164.122C41.5322 164.072 41.6922 163.962 41.7922 163.912C40.9022 162.872 40.0722 161.782 39.2422 160.682C39.9222 161.832 40.6522 162.972 41.4322 164.122C40.2822 164.852 39.1422 165.582 38.0522 166.312C34.1522 168.912 48.9822 183.592 50.9122 186.352C52.4222 188.542 53.9822 190.312 52.2122 193.122C47.2622 200.832 36.8022 201.812 31.3322 209.782C30.6022 210.822 29.0922 209.622 29.4022 208.582C31.1222 202.492 34.0322 197.022 39.7622 193.852C49.6522 188.382 44.8122 185.572 38.0422 180.002C35.0722 177.552 32.3122 174.852 29.7122 172.032C24.2422 166.042 29.8122 160.782 37.2122 157.092C31.0722 145.842 27.3222 132.622 26.6422 118.462C21.4322 120.132 15.0822 122.422 14.6722 126.432C13.4722 136.842 9.93217 147.052 2.96217 155.062C2.02217 156.152 0.252189 154.642 0.982189 153.502C5.20219 146.372 7.64223 139.292 8.58223 131.112C9.10223 126.792 8.06222 122.002 10.4522 118.152C12.3822 115.132 19.5122 114.562 22.5322 113.572C23.5222 113.262 25.2422 112.792 26.5422 112.422C26.8022 95.5025 31.5422 79.8325 39.3522 67.0725C37.0622 66.0325 34.7222 64.9425 32.3722 63.7425C28.9922 62.0225 24.9222 58.6925 23.9922 54.7925C22.4322 47.9725 26.7022 42.1425 28.5222 35.8925C32.0122 23.6625 32.3722 14.0225 29.2522 1.69247C28.7322 -0.387526 31.4422 -0.497526 32.2722 1.07247C38.5722 13.4125 37.1122 24.8125 35.2922 38.1425C33.9922 47.9825 28.3122 55.5825 40.3422 62.2425C40.9122 62.5525 41.3822 62.8125 41.9022 63.1825C44.6622 59.2225 47.7822 55.5325 51.1222 52.2525C50.5022 48.6625 50.8622 45.5325 51.9522 42.7225C53.9322 44.8025 57.2122 45.2225 60.6422 44.4425C63.1422 43.9725 65.7422 42.8325 67.9322 41.3725C69.0222 40.6425 70.1222 39.7025 71.1122 38.7225C73.8222 35.9125 75.8522 32.2625 76.0022 28.4125C76.0522 26.9025 75.6922 25.6525 75.1222 24.6125C75.1722 24.6125 75.2822 24.5625 75.3322 24.5625C78.1422 19.4125 83.6622 15.1925 90.2722 14.5625C95.0622 14.1425 100.422 14.7725 104.222 17.6325C106.672 19.4525 108.182 21.6425 109.372 23.9325C109.372 23.9825 109.322 23.9825 109.322 24.0325C109.012 24.7625 108.702 25.5925 108.542 26.5325C107.862 30.7525 109.952 34.3425 112.812 37.1025C113.492 37.8325 114.272 38.4525 115.052 39.0325C117.132 40.5925 120.722 41.9525 124.472 42.5225C128.842 43.2525 133.322 42.7825 135.562 40.1325C137.382 44.0325 138.272 48.4625 137.232 52.4725C140.562 55.7525 143.632 59.4525 146.392 63.4025C147.072 63.0425 147.742 62.6225 148.422 62.2525C160.452 55.5925 154.772 47.9925 153.472 38.1525C151.652 24.8225 150.192 13.4225 156.542 1.08247C157.322 -0.477526 160.032 -0.377526 159.512 1.70247C156.392 14.0425 156.752 23.6725 160.242 35.9025C162.062 42.1525 166.332 47.9825 164.772 54.8025C163.882 58.7025 159.772 62.0425 156.392 63.7525C153.892 65.0525 151.442 66.2025 148.952 67.3425C156.662 80.0425 161.292 95.5125 161.552 112.222C161.452 112.222 161.392 112.172 161.292 112.172C161.392 113.162 161.502 114.202 161.552 115.242C161.602 114.822 161.602 114.412 161.602 113.992C161.602 113.422 161.602 112.792 161.552 112.222C163.062 112.642 164.672 113.052 166.242 113.572C169.262 114.562 176.442 115.132 178.322 118.152C180.712 122.002 179.672 126.792 180.192 131.112C181.182 139.282 183.572 146.362 187.792 153.502C188.492 154.622 186.782 156.132 185.792 155.042Z" fill="#231F20"/>
<path d="M109.412 24.0025C109.362 24.0025 109.362 24.0025 109.312 24.0025C109.312 23.9525 109.362 23.9525 109.362 23.9025C109.362 23.9525 109.412 23.9525 109.412 24.0025Z" fill="#231F20"/>
<path d="M64.4722 41.0124C67.9722 39.2324 71.3422 36.3224 72.9622 32.6424C73.9922 30.3124 74.0622 26.8824 72.5722 25.2524C69.1522 26.3124 66.2622 27.8124 63.7722 29.7124C59.3022 32.7624 55.4222 36.1724 53.0922 40.2824C55.1322 43.5324 60.3322 43.1124 64.4722 41.0124Z" fill="#231F20"/>
<path d="M118.982 38.4825C122.312 40.1325 132.322 42.6625 134.472 37.9925C134.082 37.3125 133.662 36.6625 133.222 36.0325C128.282 29.0125 119.632 25.9325 111.472 24.2925C110.332 26.0225 110.322 28.5325 111.282 30.8425C112.702 34.2725 115.682 36.8625 118.982 38.4825Z" fill="#231F20"/>
<path d="M149.292 159.982C148.512 161.282 147.732 162.532 146.902 163.782C146.852 163.782 146.742 163.732 146.692 163.682C147.262 162.742 147.992 161.912 148.622 160.972C148.882 160.612 149.082 160.292 149.292 159.982Z" fill="white"/>
<path d="M151.062 156.862C150.702 157.542 150.332 158.272 149.912 158.942C150.272 158.262 150.642 157.592 151.002 156.862H151.062Z" fill="white"/>
<path d="M161.582 113.962C161.582 114.382 161.582 114.792 161.532 115.212C161.482 114.172 161.372 113.132 161.272 112.142C161.372 112.142 161.432 112.192 161.532 112.192C161.582 112.762 161.582 113.392 161.582 113.962Z" fill="white"/>
<path d="M41.7922 163.892C41.6922 163.942 41.5322 164.052 41.4322 164.102C40.6522 162.952 39.9222 161.812 39.2422 160.662C40.0722 161.752 40.9022 162.852 41.7922 163.892Z" fill="white"/>
<path d="M41.7922 163.892C41.6922 163.942 41.5322 164.052 41.4322 164.102C40.6522 162.952 39.9222 161.812 39.2422 160.662C40.0722 161.752 40.9022 162.852 41.7922 163.892Z" fill="#603813"/>
<path d="M149.292 159.982C148.512 161.282 147.732 162.532 146.902 163.782C146.852 163.782 146.742 163.732 146.692 163.682C147.262 162.742 147.992 161.912 148.622 160.972C148.882 160.612 149.082 160.292 149.292 159.982Z" fill="#603813"/>
<path d="M151.062 156.862C150.702 157.542 150.332 158.272 149.912 158.942C150.272 158.262 150.642 157.592 151.002 156.862H151.062Z" fill="#603813"/>
<path d="M161.582 113.962C161.582 114.382 161.582 114.792 161.532 115.212C161.482 114.172 161.372 113.132 161.272 112.142C161.372 112.142 161.432 112.192 161.532 112.192C161.582 112.762 161.582 113.392 161.582 113.962Z" fill="#603813"/>
<path d="M54.1823 177.832C24.9923 169.152 8.99227 136.362 18.4423 104.592C27.8923 72.8225 59.2123 54.1025 88.3923 62.7825C117.592 71.4625 83.3723 186.512 54.1823 177.832Z" fill="#EC1C24"/>
<path d="M54.1822 177.832C29.5322 170.502 15.4922 144.572 22.8222 119.922C30.1522 95.2725 56.0822 81.2324 80.7322 88.5624C105.382 95.8924 78.8422 185.162 54.1822 177.832Z" fill="white"/>
<path d="M135.902 177.832C165.092 169.152 181.092 136.362 171.642 104.592C162.192 72.8225 130.872 54.1025 101.692 62.7825C72.5022 71.4625 106.722 186.512 135.902 177.832Z" fill="#EC1C24"/>
<path d="M135.902 177.832C160.552 170.502 174.592 144.572 167.262 119.922C159.932 95.2725 134.002 81.2324 109.352 88.5624C84.7022 95.8924 111.252 185.162 135.902 177.832Z" fill="white"/>
</svg>
