<svg width="188" height="211" viewBox="0 0 188 211" fill="none" xmlns="http://www.w3.org/2000/svg">
<path d="M184.99 155.07C178.01 147.05 174.47 136.85 173.28 126.44C172.81 122.22 166.04 120.04 160.63 118.37C160.06 132.48 156.31 145.7 150.27 156.9H150.22C149.86 157.63 149.49 158.31 149.13 158.98C149.55 158.3 149.91 157.57 150.28 156.9C158.25 160.65 164.02 165.75 158.25 172.05C155.65 174.86 152.94 177.57 149.92 180.02C143.15 185.59 138.31 188.4 148.2 193.87C153.93 197.05 156.84 202.51 158.56 208.6C158.87 209.64 157.36 210.84 156.63 209.8C151.22 201.83 140.7 200.85 135.75 193.14C133.98 190.33 135.54 188.56 137.05 186.37C138.98 183.61 153.81 168.93 149.91 166.33C148.66 165.5 147.41 164.66 146.11 163.83C146.94 162.58 147.72 161.33 148.5 160.03C148.29 160.34 148.08 160.65 147.82 161.02C147.2 161.96 146.47 162.79 145.89 163.73C145.94 163.78 146.05 163.83 146.1 163.83C133.76 182.21 114.65 194.03 93.26 194.03C71.97 194.03 53.02 182.37 40.63 164.15C40.73 164.1 40.89 163.99 40.99 163.94C40.1 162.9 39.27 161.81 38.44 160.71C39.12 161.86 39.85 163 40.63 164.15C39.48 164.88 38.34 165.61 37.25 166.34C33.35 168.94 48.18 183.62 50.11 186.38C51.62 188.57 53.18 190.34 51.41 193.15C46.46 200.86 36 201.84 30.53 209.81C29.8 210.85 28.29 209.65 28.6 208.61C30.32 202.52 33.23 197.05 38.96 193.88C48.85 188.41 44.01 185.6 37.24 180.03C34.27 177.58 31.51 174.88 28.91 172.06C23.44 166.07 29.01 160.81 36.41 157.12C30.27 145.87 26.52 132.65 25.84 118.49C20.63 120.16 14.28 122.45 13.87 126.46C12.67 136.87 9.13 147.08 2.16 155.09C1.22 156.18 -0.549998 154.67 0.180002 153.53C4.4 146.4 6.84 139.32 7.78 131.14C8.3 126.82 7.26 122.03 9.65 118.18C11.58 115.16 18.71 114.59 21.73 113.6C22.72 113.29 24.44 112.82 25.74 112.45C26 95.53 30.74 79.86 38.55 67.1C36.26 66.06 33.92 64.97 31.57 63.77C28.19 62.05 24.12 58.72 23.19 54.82C21.63 48 25.9 42.17 27.72 35.92C31.21 23.69 31.57 14.05 28.45 1.72C27.93 -0.359999 30.64 -0.469999 31.47 1.1C37.77 13.44 36.31 24.84 34.49 38.17C33.19 48.01 27.51 55.61 39.54 62.27C40.11 62.58 40.58 62.84 41.1 63.21C43.86 59.25 46.98 55.56 50.32 52.28C49.7 48.69 50.06 45.56 51.15 42.75C53.13 44.83 56.41 45.25 59.84 44.47C62.34 44 64.94 42.86 67.13 41.4C68.22 40.67 69.32 39.73 70.31 38.75C73.02 35.94 75.05 32.29 75.2 28.44C75.25 26.93 74.89 25.68 74.32 24.64C74.37 24.64 74.48 24.59 74.53 24.59C77.34 19.44 82.86 15.22 89.47 14.59C94.26 14.17 99.62 14.8 103.42 17.66C105.87 19.48 107.38 21.67 108.57 23.96C108.57 24.01 108.52 24.01 108.52 24.06C108.21 24.79 107.9 25.62 107.74 26.56C107.06 30.78 109.15 34.37 112.01 37.13C112.69 37.86 113.47 38.48 114.25 39.06C116.33 40.62 119.92 41.98 123.67 42.55C128.04 43.28 132.52 42.81 134.76 40.16C136.58 44.06 137.47 48.49 136.43 52.5C139.76 55.78 142.83 59.48 145.59 63.43C146.27 63.07 146.94 62.65 147.62 62.28C159.65 55.62 153.97 48.02 152.67 38.18C150.85 24.85 149.39 13.45 155.74 1.11C156.52 -0.449999 159.23 -0.349999 158.71 1.73C155.59 14.07 155.95 23.7 159.44 35.93C161.26 42.18 165.53 48.01 163.97 54.83C163.08 58.73 158.97 62.07 155.59 63.78C153.09 65.08 150.64 66.23 148.15 67.37C155.86 80.07 160.49 95.54 160.75 112.25C160.65 112.25 160.59 112.2 160.49 112.2C160.59 113.19 160.7 114.23 160.75 115.27C160.8 114.85 160.8 114.44 160.8 114.02C160.8 113.45 160.8 112.82 160.75 112.25C162.26 112.67 163.87 113.08 165.44 113.6C168.46 114.59 175.64 115.16 177.52 118.18C179.91 122.03 178.87 126.82 179.39 131.14C180.38 139.31 182.77 146.39 186.99 153.53C187.7 154.65 185.98 156.16 184.99 155.07Z" fill="url(#paint0_radial_146_61)"/>
<path d="M108.62 24.03C108.57 24.03 108.57 24.03 108.52 24.03C108.52 23.98 108.57 23.98 108.57 23.93C108.56 23.98 108.62 23.98 108.62 24.03Z" fill="url(#paint1_radial_146_61)"/>
<path d="M63.67 41.04C67.17 39.26 70.54 36.35 72.16 32.67C73.19 30.34 73.26 26.91 71.77 25.28C68.35 26.34 65.46 27.84 62.97 29.74C58.5 32.79 54.62 36.2 52.29 40.31C54.33 43.56 59.53 43.14 63.67 41.04Z" fill="#231F20"/>
<path d="M118.19 38.51C121.52 40.16 131.53 42.69 133.68 38.02C133.29 37.34 132.87 36.69 132.43 36.06C127.49 29.04 118.84 25.96 110.68 24.32C109.54 26.05 109.53 28.56 110.49 30.87C111.9 34.3 114.89 36.89 118.19 38.51Z" fill="#231F20"/>
<path d="M45.52 105.39C53.34 100.3 56.36 86.77 53.58 78.11C51 70.08 44.02 68.65 38.57 71.81C34.72 78.62 31.79 86.19 29.93 94.28C30.11 95.32 30.36 96.35 30.73 97.37C32.94 103.32 38.61 109.88 45.52 105.39Z" fill="white"/>
<path d="M78.22 52.49C75.33 52.62 59.15 52.49 49.01 57.47C46.1 60.6 43.45 64.05 41.05 67.74C49.03 65.47 56.26 74.01 56.48 82.34C56.71 91.57 53.11 109.05 40.83 109.06C34.12 109.06 30.58 105.44 29.01 100.39C28.99 100.71 28.84 101.01 28.62 101.24C28.1 104.73 27.77 108.3 27.66 111.94C27.63 111.95 27.61 111.95 27.58 111.96C27.62 112.21 27.62 112.47 27.65 112.73C27.64 113.33 27.6 113.93 27.6 114.54C27.6 118.71 27.9 122.8 28.43 126.78C28.83 126.52 29.23 126.26 29.7 126.07C36.02 123.56 40.74 129.97 43.26 134.94C46 140.32 47.31 147 44.52 152.57C43.1 155.41 40.76 156.69 38.23 156.69C48.65 175.5 65.84 188.65 85.73 191.38C88.78 191.8 91.51 189.43 91.51 186.35V89.03C91.44 88.91 91.23 59.37 78.22 52.49ZM86.87 138.96C84.62 146.53 75.54 156.82 67.54 148.63C60.78 141.7 62.42 129.18 65.88 121.05C68.29 115.38 73.26 108.9 79.07 110.52C90.63 113.02 89.36 130.53 86.87 138.96Z" stroke="white" stroke-miterlimit="10"/>
<path d="M82.38 114.9C82.09 115.05 81.73 114.29 81.46 114.04C69.43 103.07 59.5 138.32 69.01 146.59C82.4 158.21 93.37 124.41 82.38 114.9Z" fill="white"/>
<path d="M43.91 145.31C43.51 141.89 42.54 138.38 40.8 135.36C39.29 132.72 36.91 128.81 33.71 128.04C31.53 127.51 29.93 128.05 28.78 129.14C30.24 138.1 33 146.51 36.83 154.08C41.71 155.49 44.47 150.07 43.91 145.31Z" fill="white"/>
<path d="M106.34 111.98C95.13 112.39 98.36 134.03 101.68 139.6C103.86 143.26 107.69 148.48 112.61 148.16C117.52 147.84 120.72 143.66 121.35 138.98C122.34 131.61 117.07 111.98 106.34 111.98Z" fill="white"/>
<path d="M157.44 96.37C155.51 100.53 152.3 103.83 147.18 104.78C140.22 106.07 132.66 101.36 129.39 95.36C125.27 87.82 125.57 77.07 131.95 70.71C135.82 66.86 140.12 65.24 145.35 66.98C143.01 63.46 140.42 60.16 137.6 57.16C126.73 55.4 115.81 53.66 104.84 52.81C94.7 57.41 93.3 73.28 93.61 84.15C93.62 84.21 93.65 84.24 93.65 84.3V85.26C93.69 86.3 93.75 88.65 93.65 88.84V186.58C93.65 189.59 96.27 191.94 99.27 191.63C119.06 189.58 136.32 177.25 147.19 159.21C145.02 159.95 142.62 160 140.03 158.97C133.39 156.31 131.93 148.18 133.6 142.01C135.33 135.63 141.15 130.38 147.72 129.38C152.22 128.69 155.52 130.28 157.33 133.28C158.6 127.29 159.28 121.01 159.28 114.55C159.29 108.28 158.64 102.2 157.44 96.37ZM114.96 150.07C103.32 152.75 96.41 137.7 96.18 128.19C95.99 120.52 99.49 106.77 109.77 110.3C123.53 112.92 130.72 146.43 114.96 150.07Z" stroke="white" stroke-miterlimit="10"/>
<path d="M135.42 142.95C134.38 147.93 135.63 154.04 140.62 156.49C143.78 158.05 146.62 157.55 149.01 156.02C152.15 150.23 154.65 143.93 156.4 137.23C153.88 126.51 137.46 133.18 135.42 142.95Z" fill="white"/>
<path d="M130.09 77.2C127.95 83.59 128.4 90.85 132.91 96.16C136.19 100.01 141.29 103.21 146.56 102.6C152.26 101.94 155.23 97.8 156.67 92.94C154.82 85.44 152.03 78.4 148.45 72.03C148.01 71.58 147.54 71.17 147.03 70.81C140.49 66.17 132.55 69.82 130.09 77.2Z" fill="white"/>
<path d="M148.5 160.01C147.72 161.31 146.94 162.56 146.11 163.81C146.06 163.81 145.95 163.76 145.9 163.71C146.47 162.77 147.2 161.94 147.83 161C148.08 160.64 148.29 160.32 148.5 160.01Z" fill="white"/>
<path d="M150.27 156.89C149.91 157.57 149.54 158.3 149.12 158.97C149.48 158.29 149.85 157.62 150.21 156.89H150.27Z" fill="white"/>
<path d="M160.78 113.99C160.78 114.41 160.78 114.82 160.73 115.24C160.68 114.2 160.57 113.16 160.47 112.17C160.57 112.17 160.63 112.22 160.73 112.22C160.78 112.79 160.78 113.42 160.78 113.99Z" fill="white"/>
<path d="M40.99 163.92C40.89 163.97 40.73 164.08 40.63 164.13C39.85 162.98 39.12 161.84 38.44 160.69C39.27 161.78 40.1 162.88 40.99 163.92Z" fill="white"/>
<path d="M40.99 163.92C40.89 163.97 40.73 164.08 40.63 164.13C39.85 162.98 39.12 161.84 38.44 160.69C39.27 161.78 40.1 162.88 40.99 163.92Z" fill="#603813"/>
<path d="M148.5 160.01C147.72 161.31 146.94 162.56 146.11 163.81C146.06 163.81 145.95 163.76 145.9 163.71C146.47 162.77 147.2 161.94 147.83 161C148.08 160.64 148.29 160.32 148.5 160.01Z" fill="#603813"/>
<path d="M150.27 156.89C149.91 157.57 149.54 158.3 149.12 158.97C149.48 158.29 149.85 157.62 150.21 156.89H150.27Z" fill="#603813"/>
<path d="M160.78 113.99C160.78 114.41 160.78 114.82 160.73 115.24C160.68 114.2 160.57 113.16 160.47 112.17C160.57 112.17 160.63 112.22 160.73 112.22C160.78 112.79 160.78 113.42 160.78 113.99Z" fill="#603813"/>
<defs>
<radialGradient id="paint0_radial_146_61" cx="0" cy="0" r="1" gradientUnits="userSpaceOnUse" gradientTransform="translate(93.5719 105.092) scale(99.4988)">
<stop offset="0.5744" stop-color="#130C0E"/>
<stop offset="0.7977" stop-color="#130C0E"/>
<stop offset="1" stop-color="#130C0E"/>
</radialGradient>
<radialGradient id="paint1_radial_146_61" cx="0" cy="0" r="1" gradientUnits="userSpaceOnUse" gradientTransform="translate(108.564 23.9751) scale(0.0521032)">
<stop offset="0.5744" stop-color="#130C0E"/>
<stop offset="0.7977" stop-color="#130C0E"/>
<stop offset="1" stop-color="#130C0E"/>
</radialGradient>
</defs>
</svg>
